<svg width="624" height="606" viewBox="0 0 624 606" fill="none" xmlns="http://www.w3.org/2000/svg">
<path d="M169.4 431.2L150.5 156.9C147.9 142.9 140.8 122.6 136.7 110.8L231.2 110C238.5 109.6 236.7 122.2 237.3 132.4C238.3 148.3 238.1 155.7 239.3 171.9L249 386.4C249 386.4 338.3 118.5 372.6 8.89997C372.6 8.89997 377 3.19996 383.9 3.19996C390.8 3.19996 398.9 3.09996 405.3 3.19996C411.8 3.19996 411.8 8.89997 411.8 8.89997C375.8 121.4 272.9 432.7 272.9 432.7C272.9 432.7 269.6 445.9 262.7 445.9C252.6 445.9 190 447.5 179.5 445.9C169 444.3 169.4 431.2 169.4 431.2Z" fill="white"/>
<path d="M384.9 391.4C385.7 384.7 386.5 377.4 386.6 373.6C386.9 366.2 385.3 363.3 379.9 362.6H353.6C353.6 362.6 349.4 362.6 347.7 366.1C345.9 369.5 344.3 378.5 344.3 378.5C344.3 378.5 331.8 462.6 330.9 468.3C330 474.1 327.7 486.7 337.6 487.7C347.5 488.7 364.6 487.7 364.6 487.7C372.2 486.9 372.6 477.8 375.7 457.8L384.9 391.4ZM406.2 237.8C407 231.1 407.8 223.8 407.9 220C408.2 212.6 406.6 209.7 401.2 209H374.9C374.9 209 370.7 209 369 212.5C367.2 215.9 365.6 224.9 365.6 224.9C365.6 224.9 353.1 309 352.2 314.7C351.3 320.5 349 333.1 358.9 334.1C368.8 335.1 385.9 334.1 385.9 334.1C393.5 333.3 393.9 324.2 397 304.2L406.2 237.8ZM483.5 246.6C483.5 246.6 479.6 278.7 477.4 293.6C471.9 329.7 452.9 348.6 452.9 348.6L457.4 355.8C462.3 362.9 464.1 369.8 464.1 381C464.1 384.9 463.8 389.2 463.2 394.1L454.9 449.6C448.7 494.2 429.2 516.4 396.3 516.4H245.9L252.7 457.5C252.7 457.5 263.1 459 272.1 453.8C281.1 448.6 282.8 440 282.8 440L368 179.8H443.9C471.5 179.8 485.3 194.9 485.3 225C485.3 231.4 484.7 238.5 483.5 246.6Z" fill="white"/>
<path d="M307.6 179.8L282.4 254.1C282.4 254.1 288.4 214.9 285.1 203.2C281.6 191 270.5 179.8 270.5 179.8H307.6Z" fill="white"/>
<path d="M361.6 3.9C344 0.900002 330.1 0 311.7 0C139.6 0 0 135.5 0 302.6C0 469.7 139.6 605.2 311.7 605.2C483.8 605.2 623.4 469.7 623.4 302.6C623.4 172.7 539.1 62 420.7 19.1L404.2 68.7C501 104.8 569.7 195.9 569.7 302.6C569.7 440.9 454.2 553.1 311.7 553.1C169.2 553.1 53.7 440.9 53.7 302.6C53.7 164.3 169.2 52.1 311.7 52.1C324.5 52.1 332.6 52.1 344.9 53.8L361.6 3.9Z" fill="white"/>
</svg>
